# xmcd
#
# Track frame offsets:
#	150
#	17244
#	28508
#	46728
#	62408
#	73258
#	89785
#	105584
#	119309
#	136609
#	153080
#	169557
#	183071
#	195816
#	211398
#	228949
#	245075
#	260460
#	275664
#	293574
#	306624
#
# Disc length: 4317 seconds
#
# Revision: 1
# Processed by: cddbd v1.5.2PL0 Copyright (c) Steve Scherf et al.
# Submitted via: dBpowerAMP V4.0
#
DISCID=1f10db15
DTITLE=Various Artist - Hott Urban Volume 37 Canada
DYEAR=2018
DGENRE=Urban
TTITLE0=Childish Gambino - This Is America
TTITLE1=Kanye West - Lift Yourself
TTITLE2=Cardi B ft. Bad Bunny and J Balvin - I Like It
TTITLE3=Anderson .Paak - Bubblin
TTITLE4=Lil Baby ft. Drake - Yes Indeed
TTITLE5=TK Kravitz ft. Jacquees - Ocean
TTITLE6=SZA - Garden (Say It Like Dat)
TTITLE7=Lil Pump - Esskeetit
TTITLE8=Weeknd, The - Call Out My Name
TTITLE9=Queen Naija - Medicine
TTITLE10=Travis Scott ft. Lil Uzi Vert and Kanye West - Watch
TTITLE11=Diplo, French Montana, Lil Pump, Zhavia - Welcome To The Party
TTITLE12=Lil Baby ft. Moneybagg Yo - All Of A Sudden
TTITLE13=Post Malone ft. Nicki Minaj - Ball For Me
TTITLE14=Future ft. Partynextdoor - No Shame
TTITLE15=King Combs ft. Chris Brown - Love You Better
TTITLE16=DJ Esco ft. Future - Chek
TTITLE17=Janelle Monae - I Like That
TTITLE18=Daniel Caesar ft. Kali Uchis - Get You
TTITLE19=Rich Homie Quan - Changed
TTITLE20=Ne-Yo - Good Man
EXTD=
EXTT0=
EXTT1=
EXTT2=
EXTT3=
EXTT4=
EXTT5=
EXTT6=
EXTT7=
EXTT8=
EXTT9=
EXTT10=
EXTT11=
EXTT12=
EXTT13=
EXTT14=
EXTT15=
EXTT16=
EXTT17=
EXTT18=
EXTT19=
EXTT20=
PLAYORDER=
